<svg width="48" height="48" viewBox="0 0 48 48" fill="none" xmlns="http://www.w3.org/2000/svg">
<path d="M6 0C2.676 0 0 2.676 0 6V42C0 45.324 2.676 48 6 48H42C45.324 48 48 45.324 48 42V6C48 2.676 45.324 0 42 0H6ZM19.766 12.5C21.026 12.5 21.776 13.1 22.016 14.3L24.942 30.906C25.8713 29.6753 26.6353 28.64 27.234 27.8C28.229 26.3679 29.0881 24.8459 29.8 23.254C30.6107 21.5433 31.016 20.0133 31.016 18.664C31.016 17.8547 30.7907 17.21 30.34 16.73C29.92 16.2207 29.1247 15.576 27.954 14.796C29.154 13.2653 30.654 12.5 32.454 12.5C33.414 12.5 34.2093 12.7853 34.84 13.356C35.5 13.9253 35.8293 14.7653 35.828 15.876C35.828 17.736 35.048 20.0613 33.488 22.852C31.9587 25.612 29.0047 29.7667 24.626 35.316L20.172 35.628L16.75 16.372H12.25V14.48C13.45 14.0893 14.86 13.6693 16.48 13.22C18.1 12.74 19.1953 12.5 19.766 12.5Z" fill="white"/>
</svg>
